<?xml version="1.0" encoding="UTF-8" standalone="no"?>
<!-- Created with Inkscape (http://www.inkscape.org/) -->

<svg
   width="32"
   height="32"
   viewBox="0 0 8.4666666 8.4666666"
   version="1.1"
   id="svg5"
   inkscape:version="1.2.1 (2ed6d7ae0b, 2022-08-22, custom)"
   sodipodi:docname="favicon.svg"
   inkscape:export-filename="../415195b4/favicon.png"
   inkscape:export-xdpi="96.000008"
   inkscape:export-ydpi="96.000008"
   xml:space="preserve"
   xmlns:inkscape="http://www.inkscape.org/namespaces/inkscape"
   xmlns:sodipodi="http://sodipodi.sourceforge.net/DTD/sodipodi-0.dtd"
   xmlns="http://www.w3.org/2000/svg"
   xmlns:svg="http://www.w3.org/2000/svg"><sodipodi:namedview
     id="namedview7"
     pagecolor="#ffffff"
     bordercolor="#666666"
     borderopacity="1.0"
     inkscape:showpageshadow="2"
     inkscape:pageopacity="0.0"
     inkscape:pagecheckerboard="false"
     inkscape:deskcolor="#d1d1d1"
     inkscape:document-units="px"
     showgrid="false"
     inkscape:zoom="8"
     inkscape:cx="21.375"
     inkscape:cy="17.9375"
     inkscape:window-width="1866"
     inkscape:window-height="1051"
     inkscape:window-x="0"
     inkscape:window-y="0"
     inkscape:window-maximized="1"
     inkscape:current-layer="layer1"><inkscape:grid
       type="xygrid"
       id="grid1262" /></sodipodi:namedview><defs
     id="defs2" /><g
     inkscape:label="Layer 1"
     inkscape:groupmode="layer"
     id="layer1"><rect
       style="color:#000000;overflow:visible;fill:#ffffff;fill-opacity:1;fill-rule:evenodd;stroke:none;stroke-width:0.881507;stop-color:#000000"
       id="rect499"
       width="8.4666662"
       height="8.4666662"
       x="5.3429483e-16"
       y="-5.4123372e-16"
       ry="1.6462524" /><g
       aria-label="J"
       transform="scale(1.0446715,0.95723869)"
       id="text236-9"
       style="font-size:7.8204px;line-height:115%;-inkscape-font-specification:sans-serif;letter-spacing:0.158269px;word-spacing:0px;fill:#f37726;stroke-width:0.488774px;stroke-opacity:0.569642;stop-color:#000000"><path
         d="M 1.1912372,2.1533295 V 2.012043 H 3.4098176 V 2.1533295 H 3.2227084 c -0.2112933,0 -0.3653084,0.06237 -0.4620451,0.1871092 -0.061097,0.081463 -0.091645,0.2774816 -0.091645,0.5880574 v 2.5317018 c 0,0.3894926 -0.053469,0.8624963 -0.1400228,1.1043381 C 2.4449873,6.8063778 2.4008315,6.9055017 2.1920838,7.0862466 1.9833361,7.2644459 1.500734,7.3274609 1.2054324,7.3274609 0.96613631,7.3274609 0.77775431,7.2689097 0.64028634,7.1518073 0.50281837,7.0321593 0.43408438,6.8959642 0.43408438,6.743222 c 0,-0.1247395 0.0318213,-0.2189305 0.0954639,-0.2825731 C 0.61355648,6.3817319 0.71156606,6.3422737 0.823577,6.3422737 1.0698358,6.3802804 1.2705541,6.5347802 1.3520918,6.5764089 1.42436,6.6130096 1.771605,6.6229535 1.9358554,6.4644785 V 2.9284961 c 0,-0.2622074 -0.016547,-0.4353152 -0.049641,-0.5193234 C 1.8607574,2.3455297 1.8072974,2.2907975 1.7258349,2.2449748 1.6163697,2.1838778 1.5005402,2.1533298 1.3783464,2.1533298 Z"
         style="font-family:'Times New Roman';-inkscape-font-specification:'Times New Roman, '"
         id="path2501"
         sodipodi:nodetypes="ccccscssccscsccccsccsc" /></g><text
       xml:space="preserve"
       style="font-size:6.48019px;line-height:115%;font-family:sans-serif;-inkscape-font-specification:sans-serif;text-decoration-color:#000000;letter-spacing:0.131146px;word-spacing:0px;fill:#f37726;fill-opacity:1;stroke:none;stroke-width:0.405011px;stroke-linecap:butt;stroke-linejoin:miter;stroke-opacity:0.569642;stop-color:#000000"
       x="4.159049"
       y="5.5307922"
       id="text236-9-7"
       transform="scale(0.86564281,1.1552109)"><tspan
         sodipodi:role="line"
         id="tspan234-1-5"
         style="font-style:normal;font-variant:normal;font-weight:normal;font-stretch:normal;font-family:'Times New Roman';-inkscape-font-specification:'Times New Roman, ';fill:#f37726;fill-opacity:1;stroke:none;stroke-width:0.405011px;stroke-opacity:0.569642"
         x="4.159049"
         y="5.5307922"><tspan
           style="fill:#000000"
           id="tspan2460-8">m</tspan></tspan></text></g></svg>
