<?xml version="1.0" encoding="UTF-8" standalone="no"?>
<!-- Created with Inkscape (http://www.inkscape.org/) -->

<svg
   width="135"
   height="45"
   viewBox="0 0 126.56251 42.187499"
   id="svg2"
   version="1.1"
   inkscape:version="1.2.1 (2ed6d7ae0b, 2022-08-22, custom)"
   sodipodi:docname="jupman.svg"
   inkscape:export-filename="../a86b7023/jupman-300x96.png"
   inkscape:export-xdpi="213.33333"
   inkscape:export-ydpi="213.33333"
   xml:space="preserve"
   xmlns:inkscape="http://www.inkscape.org/namespaces/inkscape"
   xmlns:sodipodi="http://sodipodi.sourceforge.net/DTD/sodipodi-0.dtd"
   xmlns="http://www.w3.org/2000/svg"
   xmlns:svg="http://www.w3.org/2000/svg"
   xmlns:rdf="http://www.w3.org/1999/02/22-rdf-syntax-ns#"
   xmlns:cc="http://creativecommons.org/ns#"
   xmlns:dc="http://purl.org/dc/elements/1.1/"><defs
     id="defs4"><filter
       inkscape:collect="always"
       style="color-interpolation-filters:sRGB"
       id="filter3314"
       x="-0.015547159"
       y="-0.052533684"
       width="1.0310943"
       height="1.1050674"><feGaussianBlur
         inkscape:collect="always"
         stdDeviation="0.90668029"
         id="feGaussianBlur3316" /></filter></defs><sodipodi:namedview
     id="base"
     pagecolor="#ffffff"
     bordercolor="#666666"
     borderopacity="1.0"
     inkscape:pageopacity="0.0"
     inkscape:pageshadow="2"
     inkscape:zoom="5.6568542"
     inkscape:cx="74.953319"
     inkscape:cy="-4.8613592"
     inkscape:document-units="px"
     inkscape:current-layer="layer1"
     showgrid="false"
     fit-margin-top="0"
     fit-margin-left="0"
     fit-margin-right="0"
     fit-margin-bottom="0"
     inkscape:window-width="1866"
     inkscape:window-height="1051"
     inkscape:window-x="0"
     inkscape:window-y="0"
     inkscape:window-maximized="1"
     inkscape:showpageshadow="2"
     inkscape:pagecheckerboard="0"
     inkscape:deskcolor="#d1d1d1" /><metadata
     id="metadata7"><rdf:RDF><cc:Work
         rdf:about=""><dc:format>image/svg+xml</dc:format><dc:type
           rdf:resource="http://purl.org/dc/dcmitype/StillImage" /></cc:Work></rdf:RDF></metadata><g
     inkscape:label="Layer 1"
     inkscape:groupmode="layer"
     id="layer1"
     transform="translate(-192.1243,-118.20048)"><rect
       style="color:#000000;overflow:visible;fill:#ffffff;fill-opacity:1;fill-rule:evenodd;stroke:none;stroke-width:0.839863;stroke-opacity:1;filter:url(#filter3314);stop-color:#000000"
       id="rect3238"
       width="139.96336"
       height="41.421665"
       x="192.63977"
       y="120.96527"
       ry="20.291876"
       transform="matrix(0.87698528,0,0,0.92595578,25.090405,8.2209441)" /><g
       aria-label="Jupman"
       transform="scale(0.93578994,1.0686159)"
       id="text2675"
       style="font-size:25.1506px;line-height:115%;-inkscape-font-specification:sans-serif;letter-spacing:2.2973px;word-spacing:0px;fill:#e87020;stroke-width:1.5719px;stop-color:#000000"><path
         d="m 228.44527,119.77689 v -0.45438 h 7.13501 v 0.45438 h -0.60175 q -1.01929,0 -1.48595,0.60175 -0.29473,0.39298 -0.29473,1.89121 v 8.14201 q 0,1.87893 -0.41754,3.04558 -0.40526,1.16666 -1.41227,2.03858 -1.007,0.85964 -2.43155,0.85964 -1.15437,0 -1.81752,-0.56491 -0.66315,-0.57718 -0.66315,-1.31402 0,-0.60175 0.30701,-0.90876 0.40526,-0.3807 0.9456,-0.3807 0.39298,0 0.7,0.25789 0.31929,0.2579 0.79823,1.37543 0.28246,0.66315 0.72456,0.66315 0.33157,0 0.61403,-0.40526 0.29473,-0.40526 0.29473,-1.43683 v -11.3718 q 0,-1.2649 -0.15965,-1.67016 -0.1228,-0.30701 -0.51578,-0.52806 -0.52807,-0.29474 -1.11753,-0.29474 z"
         style="font-family:'Times New Roman';-inkscape-font-specification:'Times New Roman, '"
         id="path1112" /><path
         d="m 248.6722,124.72596 v 6.81572 q 0,1.95261 0.086,2.39471 0.0983,0.42982 0.29473,0.60174 0.20877,0.17193 0.47895,0.17193 0.38069,0 0.85964,-0.20877 l 0.17192,0.42982 -3.36487,1.38771 h -0.55263 v -2.38243 q -1.4491,1.57191 -2.2105,1.97717 -0.76139,0.40526 -1.60875,0.40526 -0.94561,0 -1.6456,-0.54035 -0.68771,-0.55262 -0.95788,-1.41226 -0.27018,-0.85964 -0.27018,-2.43156 v -5.02275 q 0,-0.79823 -0.17192,-1.10525 -0.17193,-0.30701 -0.51579,-0.46666 -0.33157,-0.17193 -1.21577,-0.15965 v -0.45438 h 3.94206 v 7.52799 q 0,1.57191 0.54034,2.06313 0.55263,0.49123 1.3263,0.49123 0.52807,0 1.19122,-0.33158 0.67543,-0.33157 1.59647,-1.2649 v -6.37361 q 0,-0.95789 -0.35613,-1.28946 -0.34386,-0.34386 -1.44911,-0.36842 v -0.45438 z"
         style="font-family:'Times New Roman';-inkscape-font-specification:'Times New Roman, '"
         id="path1114" /><path
         d="m 252.87298,125.84349 3.46312,-1.39998 h 0.46667 v 2.62804 q 0.87192,-1.48595 1.74384,-2.07542 0.8842,-0.60174 1.85436,-0.60174 1.69472,0 2.82453,1.3263 1.38771,1.62103 1.38771,4.22451 0,2.9105 -1.67016,4.81398 -1.37543,1.55964 -3.46312,1.55964 -0.90876,0 -1.57191,-0.2579 -0.49123,-0.1842 -1.10525,-0.73683 v 3.42628 q 0,1.15437 0.13508,1.46139 0.14737,0.31929 0.49122,0.5035 0.35614,0.18421 1.27718,0.18421 v 0.45438 h -5.89467 v -0.45438 h 0.30702 q 0.67543,0.0123 1.15437,-0.25789 0.23333,-0.13509 0.35613,-0.4421 0.13509,-0.29474 0.13509,-1.5228 v -10.63497 q 0,-1.09297 -0.0982,-1.3877 -0.0983,-0.29473 -0.3193,-0.4421 -0.20877,-0.14737 -0.57718,-0.14737 -0.29474,0 -0.74912,0.17193 z m 3.92979,1.95261 v 4.19996 q 0,1.36314 0.11052,1.79296 0.17193,0.71227 0.83508,1.25262 0.67543,0.54034 1.69472,0.54034 1.22805,0 1.98945,-0.95788 0.99472,-1.25262 0.99472,-3.52452 0,-2.57892 -1.12981,-3.96663 -0.78595,-0.95788 -1.86664,-0.95788 -0.58947,0 -1.16666,0.29473 -0.4421,0.22105 -1.46138,1.3263 z"
         style="font-family:'Times New Roman';-inkscape-font-specification:'Times New Roman, '"
         id="path1116" /><path
         d="m 271.89642,126.7891 q 1.22805,-1.22806 1.4491,-1.41227 0.55263,-0.46666 1.19122,-0.72455 0.63859,-0.25789 1.2649,-0.25789 1.05612,0 1.81752,0.61402 0.76139,0.61403 1.01929,1.78069 1.2649,-1.47367 2.13682,-1.92805 0.87192,-0.46666 1.79296,-0.46666 0.89648,0 1.58419,0.46666 0.69999,0.45438 1.10525,1.49823 0.27017,0.71227 0.27017,2.23506 v 4.83854 q 0,1.05613 0.15965,1.44911 0.12281,0.27017 0.45438,0.46666 0.33158,0.18421 1.08069,0.18421 v 0.4421 h -5.55081 v -0.4421 h 0.23333 q 0.72455,0 1.12981,-0.28245 0.28245,-0.19649 0.40526,-0.62631 0.0491,-0.20877 0.0491,-1.19122 v -4.83854 q 0,-1.37542 -0.33157,-1.94033 -0.47895,-0.78596 -1.53508,-0.78596 -0.65087,0 -1.31402,0.33158 -0.65087,0.31929 -1.58419,1.20349 l -0.0246,0.13509 0.0246,0.52807 v 5.3666 q 0,1.15438 0.12281,1.43683 0.13508,0.28245 0.49122,0.47894 0.35614,0.18421 1.21578,0.18421 v 0.4421 h -5.68591 v -0.4421 q 0.93333,0 1.27718,-0.22105 0.35614,-0.22105 0.49122,-0.66315 0.0614,-0.20877 0.0614,-1.21578 v -4.83854 q 0,-1.37542 -0.40526,-1.97717 -0.54035,-0.78596 -1.51051,-0.78596 -0.66315,0 -1.31402,0.35614 -1.01929,0.54034 -1.57191,1.21577 v 6.02976 q 0,1.10525 0.14736,1.43683 0.15965,0.33157 0.45438,0.5035 0.30702,0.15965 1.22806,0.15965 v 0.4421 h -5.5631 v -0.4421 q 0.77368,0 1.08069,-0.15965 0.30702,-0.17193 0.46666,-0.52806 0.15965,-0.36842 0.15965,-1.41227 v -4.2982 q 0,-1.85436 -0.11052,-2.39471 -0.086,-0.40525 -0.27018,-0.55262 -0.1842,-0.15965 -0.5035,-0.15965 -0.34385,0 -0.8228,0.18421 l -0.1842,-0.4421 3.38943,-1.37542 h 0.52807 z"
         style="fill:#7d7d7d"
         id="path1118" /><path
         d="m 296.78996,134.35393 q -1.73156,1.33858 -2.17366,1.54735 -0.66315,0.30701 -1.41227,0.30701 -1.16665,0 -1.92805,-0.79824 -0.74911,-0.79823 -0.74911,-2.09997 0,-0.8228 0.36841,-1.42455 0.50351,-0.83508 1.74385,-1.57191 1.25261,-0.73683 4.15083,-1.79296 v -0.4421 q 0,-1.68244 -0.54035,-2.30875 -0.52806,-0.62631 -1.54735,-0.62631 -0.77368,0 -1.22806,0.41754 -0.46666,0.41754 -0.46666,0.95788 l 0.0246,0.71228 q 0,0.5649 -0.29473,0.87192 -0.28245,0.30701 -0.74911,0.30701 -0.45439,0 -0.74912,-0.31929 -0.28245,-0.3193 -0.28245,-0.87192 0,-1.05613 1.08069,-1.94033 1.08069,-0.8842 3.0333,-0.8842 1.49823,0 2.45611,0.5035 0.72455,0.3807 1.06841,1.19121 0.22105,0.52807 0.22105,2.16138 v 3.81926 q 0,1.60875 0.0614,1.97717 0.0614,0.35614 0.19649,0.47894 0.14737,0.12281 0.33158,0.12281 0.19649,0 0.34385,-0.086 0.2579,-0.15965 0.99473,-0.89649 v 0.68772 q -1.37542,1.84208 -2.62804,1.84208 -0.60175,0 -0.95789,-0.41754 -0.35613,-0.41754 -0.36841,-1.42454 z m 0,-0.79824 v -4.28592 q -1.85437,0.73683 -2.39471,1.04385 -0.97017,0.54034 -1.38771,1.12981 -0.41754,0.58947 -0.41754,1.28946 0,0.8842 0.52807,1.47367 0.52806,0.57719 1.21577,0.57719 0.93333,0 2.45612,-1.22806 z"
         style="fill:#7d7d7d"
         id="path1120" /><path
         d="m 307.15559,126.77682 q 1.97717,-2.38243 3.77013,-2.38243 0.92105,0 1.5842,0.46666 0.66315,0.45438 1.05612,1.51051 0.27018,0.73683 0.27018,2.25962 v 4.8017 q 0,1.06841 0.17192,1.44911 0.13509,0.30701 0.42982,0.47894 0.30702,0.17193 1.11754,0.17193 v 0.4421 h -5.5631 v -0.4421 h 0.23333 q 0.78596,0 1.09297,-0.23333 0.3193,-0.24561 0.4421,-0.71227 0.0491,-0.18421 0.0491,-1.15438 v -4.60521 q 0,-1.53507 -0.40526,-2.22278 -0.39297,-0.69999 -1.33858,-0.69999 -1.46138,0 -2.91049,1.59647 v 5.93151 q 0,1.1421 0.13508,1.41227 0.17193,0.35613 0.46667,0.52806 0.30701,0.15965 1.22805,0.15965 v 0.4421 h -5.56309 v -0.4421 h 0.24561 q 0.85964,0 1.15437,-0.42982 0.30702,-0.4421 0.30702,-1.67016 v -4.17539 q 0,-2.02629 -0.0983,-2.46839 -0.086,-0.4421 -0.28245,-0.60175 -0.18421,-0.15965 -0.50351,-0.15965 -0.34385,0 -0.82279,0.18421 l -0.18421,-0.4421 3.38943,-1.37542 h 0.52807 z"
         style="fill:#7d7d7d"
         id="path1122" /></g><text
       xml:space="preserve"
       style="font-size:15px;line-height:115%;font-family:sans-serif;-inkscape-font-specification:sans-serif;text-decoration-color:#000000;letter-spacing:0px;word-spacing:0px;fill:#000000;stroke:#000000;stroke-width:0.937499px;stroke-linecap:butt;stroke-linejoin:miter;stroke-opacity:1;-inkscape-stroke:none;stop-color:#000000"
       x="425.92996"
       y="123.95995"
       id="text4721"><tspan
         sodipodi:role="line"
         id="tspan4719"
         style="stroke-width:0.937499px"
         x="425.92996"
         y="123.95995" /></text></g></svg>
