<svg id="Layer_1" data-name="Layer 1" xmlns="http://www.w3.org/2000/svg" viewBox="0 0 744.11 255.28"><defs><style>.cls-1{fill:#b7d43b;}.cls-2{fill:#0099ce;}.cls-3{fill:#f8a728;}.cls-4{fill:#a1216e;}.cls-5{fill:#f15a33;}</style></defs><title>spazio-dati_colors</title><path d="M19.56,246.69l-3.18-8.12H6.15L3,246.69H0l10.09-25.64h2.5l10,25.64Zm-4.1-10.79-3-7.91c-.39-1-.78-2.23-1.19-3.69A34,34,0,0,1,10.2,228l-3,7.91Z"/><path d="M48.52,223.44a8.36,8.36,0,0,0-6.65,2.81,11.31,11.31,0,0,0-2.44,7.67c0,3.35.79,5.93,2.35,7.75a8.36,8.36,0,0,0,6.7,2.73,23,23,0,0,0,6.1-1v2.61A18.9,18.9,0,0,1,48,247q-5.64,0-8.71-3.42t-3.06-9.73A15.43,15.43,0,0,1,37.73,227,10.61,10.61,0,0,1,42,222.4a12.78,12.78,0,0,1,6.55-1.61,15.78,15.78,0,0,1,7,1.47l-1.25,2.55A13.56,13.56,0,0,0,48.52,223.44Z"/><path d="M68.87,247a8.78,8.78,0,0,1-6.69-2.58,10,10,0,0,1-2.46-7.18A11.11,11.11,0,0,1,62,229.92a7.59,7.59,0,0,1,6.12-2.72,7.23,7.23,0,0,1,5.7,2.37,9.07,9.07,0,0,1,2.09,6.24v1.83H62.72a7.58,7.58,0,0,0,1.71,5.12A5.89,5.89,0,0,0,69,244.51a15.26,15.26,0,0,0,6.11-1.3v2.59a15.13,15.13,0,0,1-2.91.95A16.48,16.48,0,0,1,68.87,247Zm-.78-17.41a4.74,4.74,0,0,0-3.68,1.5,6.93,6.93,0,0,0-1.61,4.15h10a6.37,6.37,0,0,0-1.22-4.2A4.3,4.3,0,0,0,68.09,229.63Z"/><path d="M90.66,227.2a11.38,11.38,0,0,1,2.29.21l-.4,2.69a9.52,9.52,0,0,0-2.1-.26,5.08,5.08,0,0,0-4,1.88,6.9,6.9,0,0,0-1.65,4.7v10.27h-2.9V227.55h2.39l.33,3.54h.14a8.52,8.52,0,0,1,2.57-2.88A5.81,5.81,0,0,1,90.66,227.2Z"/><path d="M101.8,246.69l-7.27-19.14h3.11l4.12,11.35a53.7,53.7,0,0,1,1.64,5.17h.14a37.66,37.66,0,0,1,1.22-3.83q1-2.91,4.58-12.69h3.11l-7.27,19.14Z"/><path d="M124.68,247a8.81,8.81,0,0,1-6.7-2.58,10.05,10.05,0,0,1-2.45-7.18,11.11,11.11,0,0,1,2.28-7.36,7.59,7.59,0,0,1,6.12-2.72,7.23,7.23,0,0,1,5.7,2.37,9.07,9.07,0,0,1,2.09,6.24v1.83H118.53a7.58,7.58,0,0,0,1.71,5.12,5.91,5.91,0,0,0,4.55,1.75,15.26,15.26,0,0,0,6.11-1.3v2.59a15.36,15.36,0,0,1-2.91.95A16.41,16.41,0,0,1,124.68,247Zm-.79-17.41a4.74,4.74,0,0,0-3.67,1.5,7,7,0,0,0-1.62,4.15h10a6.43,6.43,0,0,0-1.22-4.2A4.3,4.3,0,0,0,123.89,229.63Z"/><path d="M150.77,244.12h-.16a6.8,6.8,0,0,1-6,2.92,7.11,7.11,0,0,1-5.84-2.57q-2.08-2.57-2.09-7.3c0-3.15.7-5.61,2.1-7.35a7,7,0,0,1,5.83-2.62,7,7,0,0,1,6,2.83h.22l-.12-1.38-.07-1.35v-7.79h2.9v27.18h-2.36Zm-5.8.49a5.25,5.25,0,0,0,4.3-1.61q1.33-1.62,1.34-5.22v-.61c0-2.71-.45-4.65-1.35-5.8a5.16,5.16,0,0,0-4.33-1.74,4.43,4.43,0,0,0-3.9,2,9.88,9.88,0,0,0-1.35,5.6,9.48,9.48,0,0,0,1.34,5.53A4.55,4.55,0,0,0,145,244.61Z"/><path d="M182.47,223.44a8.35,8.35,0,0,0-6.65,2.81,11.31,11.31,0,0,0-2.43,7.67q0,5,2.34,7.75a8.36,8.36,0,0,0,6.7,2.73,22.91,22.91,0,0,0,6.1-1v2.61a18.9,18.9,0,0,1-6.55,1q-5.64,0-8.71-3.42t-3.06-9.73a15.43,15.43,0,0,1,1.47-6.92,10.59,10.59,0,0,1,4.26-4.57,12.81,12.81,0,0,1,6.56-1.61,15.78,15.78,0,0,1,7,1.47l-1.26,2.55A13.48,13.48,0,0,0,182.47,223.44Z"/><path d="M211.26,237.1a10.57,10.57,0,0,1-2.36,7.31,8.3,8.3,0,0,1-6.51,2.63,8.54,8.54,0,0,1-4.56-1.21,7.91,7.91,0,0,1-3.08-3.45,12.08,12.08,0,0,1-1.08-5.28q0-4.68,2.34-7.29a8.29,8.29,0,0,1,6.5-2.61,8.11,8.11,0,0,1,6.38,2.67A10.5,10.5,0,0,1,211.26,237.1Zm-14.59,0a9.06,9.06,0,0,0,1.47,5.59,5.83,5.83,0,0,0,8.64,0,9.08,9.08,0,0,0,1.48-5.6,8.9,8.9,0,0,0-1.48-5.54,5.18,5.18,0,0,0-4.36-1.9,5.1,5.1,0,0,0-4.29,1.87A9,9,0,0,0,196.67,237.1Z"/><path d="M241.81,246.69V234.24a5.16,5.16,0,0,0-1-3.43,3.78,3.78,0,0,0-3-1.15,4.92,4.92,0,0,0-4,1.55,7.37,7.37,0,0,0-1.29,4.79v10.69h-2.9V234.24a5.16,5.16,0,0,0-1-3.43,3.78,3.78,0,0,0-3.06-1.15,4.75,4.75,0,0,0-4,1.63c-.84,1.09-1.27,2.88-1.27,5.36v10h-2.9V227.55h2.36l.47,2.62h.14A5.68,5.68,0,0,1,222.7,228a7,7,0,0,1,3.34-.79q4.49,0,5.87,3.25h.14a6.12,6.12,0,0,1,2.48-2.38,7.74,7.74,0,0,1,3.7-.87,6.5,6.5,0,0,1,4.87,1.67q1.6,1.66,1.61,5.33v12.49Z"/><path d="M260.67,247a8.29,8.29,0,0,1-3.42-.69,6.46,6.46,0,0,1-2.59-2.12h-.21a25.69,25.69,0,0,1,.21,3.18v7.87h-2.9V227.55h2.36l.4,2.62h.14a6.62,6.62,0,0,1,2.6-2.27,7.87,7.87,0,0,1,3.41-.7,7.07,7.07,0,0,1,5.87,2.6c1.39,1.74,2.07,4.17,2.07,7.3s-.7,5.59-2.1,7.33A7.08,7.08,0,0,1,260.67,247Zm-.42-17.38a5.14,5.14,0,0,0-4.25,1.63q-1.31,1.62-1.34,5.17v.64q0,4,1.34,5.78a5.15,5.15,0,0,0,4.32,1.73,4.5,4.5,0,0,0,3.89-2,9.56,9.56,0,0,0,1.4-5.53,9.25,9.25,0,0,0-1.4-5.5A4.65,4.65,0,0,0,260.25,229.66Z"/><path d="M286.52,246.69,286,244h-.14A7.93,7.93,0,0,1,283,246.4a8.6,8.6,0,0,1-3.55.64,6.36,6.36,0,0,1-4.46-1.47,5.33,5.33,0,0,1-1.62-4.17q0-5.81,9.28-6.08l3.24-.1V234a4.89,4.89,0,0,0-1-3.33,4,4,0,0,0-3.11-1.07,12.61,12.61,0,0,0-5.41,1.46l-.89-2.21a13.25,13.25,0,0,1,3.1-1.21,13.46,13.46,0,0,1,3.38-.44,7.3,7.3,0,0,1,5.07,1.52c1.1,1,1.65,2.64,1.65,4.88v13.06Zm-6.55-2a5.89,5.89,0,0,0,4.26-1.49,5.49,5.49,0,0,0,1.54-4.16v-1.72l-2.9.12a10.58,10.58,0,0,0-5,1.07,3.25,3.25,0,0,0-1.53,3,3,3,0,0,0,.95,2.39A4,4,0,0,0,280,244.65Z"/><path d="M308.82,246.69V234.31a5,5,0,0,0-1.07-3.5,4.36,4.36,0,0,0-3.33-1.15,5.48,5.48,0,0,0-4.4,1.63c-.94,1.08-1.4,2.87-1.4,5.36v10h-2.9V227.55h2.36l.47,2.62h.14a5.94,5.94,0,0,1,2.5-2.19,8.07,8.07,0,0,1,3.58-.78,7.27,7.27,0,0,1,5.2,1.67q1.75,1.66,1.75,5.33v12.49Z"/><path d="M315.71,227.55h3.11L323,238.47a41.43,41.43,0,0,1,1.71,5.39h.14c.15-.59.47-1.61.95-3.05s2.07-5.85,4.75-13.26h3.1l-8.22,21.79a10.88,10.88,0,0,1-2.86,4.59,6.1,6.1,0,0,1-4,1.35A11.62,11.62,0,0,1,316,255v-2.33a10.11,10.11,0,0,0,2.15.21q3,0,4.26-3.35l1.07-2.72Z"/><g id="Page-1"><g id="SD_long" data-name="SD long"><path id="Shape" d="M54.77,173.26q0,9.74-7,15.54t-19,5.8q-15.5,0-25.68-10.16l4.12-4.11a31.54,31.54,0,0,0,10,7.07,31.57,31.57,0,0,0,11.93,2q9.21,0,14.53-4.22c3.55-2.82,5.32-6.71,5.32-11.7q0-7.14-4.24-10.82-3.36-2.93-11.18-4.12l-9-1.41Q4.65,154,4.65,137.3q0-9.63,6.47-15.37t17.54-5.74a33.15,33.15,0,0,1,22.26,8.31l-3.79,3.77a27.45,27.45,0,0,0-18.77-7.12q-8.35,0-13.12,4.28c-3.19,2.85-4.77,6.73-4.77,11.64q0,6.72,4,10.08A22.6,22.6,0,0,0,26,151.92l8.34,1.29q9.31,1.41,13.75,5.1,6.72,5.52,6.72,14.95"/><path id="Shape-2" data-name="Shape" d="M122.1,139q0,10.29-6.53,16.24t-16.85,6H76.22V194H70.41V116.79H98.75q10.32,0,16.83,6T122.1,139m-5.82,0q0-8.44-5.11-12.89Q106.37,122,98.1,122H76.22v34H98.1q8.28,0,13.23-4.28t5-12.72"/><path id="Shape-3" data-name="Shape" d="M180,194h-6.29L167,175.24H131L124.28,194H118l28.42-77.21h5.21L180,194Zm-14.86-24L149,124.59,132.85,170Z"/><path id="Shape-4" data-name="Shape" d="M232.82,194h-47v-6.19L226.53,122H187.48v-5.21h45.34V122l-41,66.79h41Z"/><rect id="Rectangle-path" x="250.4" y="117.06" width="5.81" height="77.21"/><path id="Shape-5" data-name="Shape" d="M325.88,155.39q0,14.63-1,19.61a21.88,21.88,0,0,1-6.17,11.69,27.5,27.5,0,0,1-38.6,0A21.88,21.88,0,0,1,274,175q-1-5-1-19.61t1-19.6a22,22,0,0,1,6.17-11.7,27.53,27.53,0,0,1,38.6,0,22,22,0,0,1,6.17,11.7q1,5,1,19.6m-5.81,0q0-13.32-.87-18.19a18.81,18.81,0,0,0-5.1-9.85,21,21,0,0,0-29.33,0,18.75,18.75,0,0,0-5.11,9.85q-.87,4.88-.87,18.19t.87,18.2a18.75,18.75,0,0,0,5.11,9.85,21,21,0,0,0,29.33,0,18.81,18.81,0,0,0,5.1-9.85q.87-4.87.87-18.2"/><path id="Shape-6" data-name="Shape" d="M399.88,155.07c0,8.6-.23,14.24-.65,16.91a25.8,25.8,0,0,1-7.16,14.64Q384.71,194,371.69,194H343.83V116.79h27.86q13,0,20.38,7.38a25.55,25.55,0,0,1,7.16,14.31c.42,2.6.65,8.13.65,16.59m-15.14,0a107.74,107.74,0,0,0-.54-13.13,13.91,13.91,0,0,0-2.69-6.94q-3.88-4.77-11.23-4.78H359v50.34h11.32q7.35,0,11.23-4.77a14.29,14.29,0,0,0,2.69-7.27,115,115,0,0,0,.54-13.45"/><path id="Shape-7" data-name="Shape" d="M473.65,194H457.92l-4.55-13.67H425.92L421.25,194H405.52l28.1-77.2h11.82L473.65,194Zm-24.3-26.38-9.44-28.05-9.76,28.05Z"/><path id="Shape-8" data-name="Shape" d="M524.82,130.22H504.73V194H489.6V130.22H469.38V116.79h55.44Z"/><rect id="Rectangle-path-2" data-name="Rectangle-path" x="539.87" y="117.06" width="15.13" height="77.21"/><g id="Group"><g id="Clipped"><path id="Shape-9" data-name="Shape" d="M633.84,84.83a18,18,0,0,0,25.44,25.44h0a18,18,0,1,0-25.44-25.44ZM550.12,189.31,627,112.45a24.61,24.61,0,1,1,37,2.49l-2.34-2.33,2.34,2.33a24.59,24.59,0,0,1-32.3,2.18L554.8,194l-4.68-4.68Z"/></g><rect id="Rectangle-path-3" data-name="Rectangle-path" x="645.55" y="34.35" width="2.65" height="41.25"/><g id="Clipped-2" data-name="Clipped"><path id="Shape-10" data-name="Shape" class="cls-1" d="M632.05,18.49A14.52,14.52,0,1,0,646.57,4a14.53,14.53,0,0,0-14.52,14.52m-4,0A18.5,18.5,0,1,1,646.57,37a18.49,18.49,0,0,1-18.5-18.5"/></g><rect id="Rectangle-path-4" data-name="Rectangle-path" x="668.52" y="95.61" width="41.25" height="2.65"/><g id="Clipped-3" data-name="Clipped"><path id="Shape-11" data-name="Shape" class="cls-2" d="M707.13,97.55A18.49,18.49,0,1,1,725.62,116v-4A14.52,14.52,0,1,0,711.1,97.55a14.53,14.53,0,0,0,14.52,14.52v4a18.49,18.49,0,0,1-18.49-18.49"/></g><rect id="Rectangle-path-5" data-name="Rectangle-path" x="655.08" y="67.15" width="41.26" height="2.65" transform="translate(149.46 497.82) rotate(-45)"/><g id="Clipped-4" data-name="Clipped"><path id="Shape-12" data-name="Shape" class="cls-3" d="M692.2,31.38a14.52,14.52,0,1,0,10.26-4.25,14.44,14.44,0,0,0-10.26,4.25m-2.81,23.34a18.5,18.5,0,1,1,26.15,0l-1.4-1.39,1.4,1.4a18.49,18.49,0,0,1-26.15,0"/></g><rect id="Rectangle-path-6" data-name="Rectangle-path" x="616.57" y="47.28" width="2.65" height="41.26" transform="translate(133.51 457.5) rotate(-45.08)"/><g id="Clipped-5" data-name="Clipped"><path id="Shape-13" data-name="Shape" class="cls-4" d="M590.66,60.13h0a18.49,18.49,0,1,1,0-37v4a14.53,14.53,0,0,0,0,29.05h.12a14.53,14.53,0,0,0-.11-29v-4a18.49,18.49,0,1,1,0,37h0"/></g><rect id="Rectangle-path-7" data-name="Rectangle-path" x="675.2" y="106.5" width="2.65" height="41.25" transform="translate(108.31 515.69) rotate(-45.01)"/><g id="Clipped-6" data-name="Clipped"><path id="Shape-14" data-name="Shape" class="cls-5" d="M687.94,153.45a14.52,14.52,0,1,0,14.53-14.52,14.55,14.55,0,0,0-14.53,14.52m-4,0a18.49,18.49,0,1,1,18.5,18.49A18.49,18.49,0,0,1,684,153.45"/></g></g></g></g></svg>