<?xml version="1.0" encoding="UTF-8" standalone="no"?>
<!-- Created with Inkscape (http://www.inkscape.org/) -->

<svg
   width="32"
   height="32"
   viewBox="0 0 8.4666666 8.4666666"
   version="1.1"
   id="svg5"
   inkscape:version="1.2.1 (2ed6d7ae0b, 2022-08-22, custom)"
   sodipodi:docname="favicon.svg"
   inkscape:export-filename="../b55de0ad/favicon.png"
   inkscape:export-xdpi="96"
   inkscape:export-ydpi="96"
   xml:space="preserve"
   xmlns:inkscape="http://www.inkscape.org/namespaces/inkscape"
   xmlns:sodipodi="http://sodipodi.sourceforge.net/DTD/sodipodi-0.dtd"
   xmlns="http://www.w3.org/2000/svg"
   xmlns:svg="http://www.w3.org/2000/svg"><sodipodi:namedview
     id="namedview7"
     pagecolor="#ffffff"
     bordercolor="#666666"
     borderopacity="1.0"
     inkscape:showpageshadow="2"
     inkscape:pageopacity="0.0"
     inkscape:pagecheckerboard="false"
     inkscape:deskcolor="#d1d1d1"
     inkscape:document-units="px"
     showgrid="false"
     inkscape:zoom="11.313708"
     inkscape:cx="7.5130096"
     inkscape:cy="9.8553008"
     inkscape:window-width="1866"
     inkscape:window-height="1051"
     inkscape:window-x="0"
     inkscape:window-y="0"
     inkscape:window-maximized="1"
     inkscape:current-layer="layer1"
     showguides="false"><inkscape:grid
       type="xygrid"
       id="grid1262" /><sodipodi:guide
       position="-9.3490962,1.8270566"
       orientation="0,-1"
       id="guide2103"
       inkscape:locked="false" /><sodipodi:guide
       position="-5.950093,6.9575038"
       orientation="0,-1"
       id="guide2105"
       inkscape:locked="false" /></sodipodi:namedview><defs
     id="defs2"><filter
       inkscape:collect="always"
       style="color-interpolation-filters:sRGB"
       id="filter4130"
       x="-0.024710627"
       y="-0.024710627"
       width="1.0494213"
       height="1.0494213"><feGaussianBlur
         inkscape:collect="always"
         stdDeviation="0.087173599"
         id="feGaussianBlur4132" /></filter></defs><g
     inkscape:label="Layer 1"
     inkscape:groupmode="layer"
     id="layer1"><rect
       style="color:#000000;overflow:visible;fill:#5ca703;fill-opacity:1;fill-rule:evenodd;stroke:none;stroke-width:0.881507;filter:url(#filter4130);stop-color:#000000"
       id="rect499"
       width="8.4666662"
       height="8.4666662"
       x="5.3429483e-16"
       y="-5.4123372e-16"
       ry="1.6462524"
       transform="matrix(1,0,0,0.99356102,0,0.05586382)" /><g
       aria-label="J"
       transform="scale(1.0446715,0.95723869)"
       id="text236-9"
       style="font-size:7.8204px;line-height:115%;-inkscape-font-specification:sans-serif;letter-spacing:0.158269px;word-spacing:0px;fill:#f37726;stroke-width:0.488774px;stroke-opacity:0.569642;stop-color:#000000" /><g
       aria-label="SP"
       transform="matrix(0.82121431,0,0,1.0959205,-0.06474949,0.46869905)"
       id="text236-9-7"
       style="font-size:5.36809px;line-height:115%;-inkscape-font-specification:sans-serif;letter-spacing:0.362479px;word-spacing:0px;fill:#fafff4;fill-opacity:1;stroke-width:0.335505px;stroke-opacity:0.569642;stop-color:#000000"><path
         d="m 3.2129631,1.2110225 c -0.713956,0 -1.4440163,0.5260728 -1.4440163,1.3527587 0,0.4616557 0.3113492,0.8749987 0.8427902,1.1380351 0.5260728,0.2630364 0.9984647,0.4079748 0.9984647,0.7300602 0,0.413343 -0.418711,0.4348153 -0.6388027,0.4348153 -0.4938643,0 -0.4746345,-0.4339076 -1.0843542,-0.4992323 -0.91291658,-0.1019206 -0.7428313,0.4732087 -0.5046005,0.8481582 0.1006223,0.174746 0.6280666,0.5851218 1.664108,0.5851218 0.8642625,0 1.669476,-0.3703982 1.669476,-1.4279119 0,-0.5797538 -0.5421771,-0.9984648 -1.0360414,-1.2078203 C 3.1753864,2.9502837 2.7566754,2.7731367 2.7566754,2.5262045 c 0,-0.241564 0.1825151,-0.3972386 0.5260728,-0.3972386 0.4562877,0 0.2486878,0.1878792 0.8964711,0.3059811 0,0 0.55957,0.036523 0.6353226,-0.2709739 C 4.9541616,1.8696233 4.5871941,1.6297335 4.5871941,1.6297335 c 0,0 -0.5690175,-0.418711 -1.374231,-0.418711 z"
         style="font-family:Hussar;-inkscape-font-specification:Hussar;fill:#fafff4;fill-opacity:1"
         id="path2002"
         sodipodi:nodetypes="sscssccsscsscccs" /><path
         d="m 6.0704229,1.6214867 c -0.036147,0.067955 -0.1653705,0.4561039 -0.1757525,0.8874157 -0.00358,0.1485727 -0.030017,0.7568579 -0.027918,1.0045308 0.0082,0.9677715 0.049284,1.121693 0.1064721,1.5850713 0.012168,0.098596 0.032069,0.3818689 0.145733,0.546912 0.1947239,0.23894 0.8833894,0.209426 1.009201,0 0,0 0.056776,-0.06388 0.071092,-0.218153 C 7.2412634,5.1765419 7.0943852,3.9008296 7.0943852,3.9008296 L 7.7347526,4.0027805 C 8.5801449,4.1373728 9.248554,3.4928119 9.248554,2.5802366 9.248554,1.6622932 8.3098593,1.2986002 7.8903139,1.2163787 7.6424981,1.1678117 6.7399687,1.0917539 6.4440591,1.2343217 6.345947,1.2815916 6.1291719,1.4479739 6.0704229,1.6214867 Z M 6.9998048,3.0384061 C 6.9759376,2.9987109 6.7355524,2.8200254 6.9741405,2.2559912 c 0.012706,-0.030037 0.017743,-0.073816 0.1227317,-0.1905971 0.055626,-0.046053 0.1403762,-0.062439 0.2678535,-0.047503 0.016143,0.00189 0.1613666,0.010717 0.2776991,0.032305 0.093111,0.017278 0.5432492,0.1059647 0.5432492,0.5622523 0,0.4509196 -0.3760083,0.5955119 -0.7730049,0.5851219 C 7.2169388,3.1924476 7.0304426,3.0884122 6.9998048,3.0384061 Z"
         style="font-family:Hussar;-inkscape-font-specification:Hussar;fill:#fafff4;fill-opacity:1"
         id="path2004"
         sodipodi:nodetypes="csssccccssssccscssssc" /></g></g></svg>
